# xmcd
# 
# Track frame offsets:
#     150
#     22793
#     36130
#     54825
#     74826
#     88132
#     124504
#     140747
# 
# Disc length: 2058
# 
# Revision: 0
# Processed by: cddbd v1.5.2PL0 Copyright (c) Steve Scherf et al.
# Submitted via: BonkEnc v1.0.15
# 
DISCID=6a080808
DTITLE=InVitro - Hibridacion
DYEAR=2001
DGENRE=Rock
TTITLE0=Dejar de ser
TTITLE1=Costumbres
TTITLE2=La Playa
TTITLE3=La Mirada
TTITLE4=Avistamentos...como cometas
TTITLE5=Trip (Instrumental)
TTITLE6=Metamorfosis
TTITLE7=Azul (Instrumental)
EXTD=
EXTT0=
EXTT1=
EXTT2=
EXTT3=
EXTT4=
EXTT5=
EXTT6=
EXTT7=
PLAYORDER=
